# xmcd
#
# Track frame offsets:
#	150
#	15989
#	27802
#	45008
#	60444
#	75817
#	92169
#	106176
#	119476
#	133065
#	146922
#	167243
#	181153
#	197420
#	210952
#	225069
#	238502
#	252295
#	268199
#	286350
#	300379
#
# Disc length: 4178 seconds
#
# Revision: 2
# Processed by: cddbd v1.5.1PL0 Copyright (c) Steve Scherf et al.
# Submitted via: audiograbber 1.83.01
#
DISCID=00105015
DTITLE=España en Eurovisión - CD2
DYEAR=2005
DGENRE=Eurovision
TTITLE0=81 Spanien  Bacchelli - Y solo tú
TTITLE1=82 Spanien  Lucía - El
TTITLE2=83 Spanien  Remedios Amaya - Quién maneja mi barca
TTITLE3=84 Spanien  Bravo - Lady lady
TTITLE4=85 Spanien  Paloma san Basilio - La fiesta terminó
TTITLE5=86 Spanien  Cadillac - Valentino
TTITLE6=87 Spanien  Patricia Kraus - No estás solo
TTITLE7=88 Spanien  La Década Prodigiosa - La chica que you quiero
TTITLE8=89 Spanien  Nina - Nacida para amar
TTITLE9=90 Spanien  Azúcar moreno - Bandido
TTITLE10=91 Spanien  Sergio Dalma - Bailar pegados
TTITLE11=92 Spanien  Serafín Zubiri - Todo esto es la música
TTITLE12=93 Spanien  Eva Santamaría - Hombres
TTITLE13=94 Spanien  Alejandro Abad - Ella no es ella
TTITLE14=95 Spanien  Anabel Conde - Vuelve conmigo
TTITLE15=96 Spanien  Antonio Carbonell - ¡Ay, qué deseo!
TTITLE16=97 Spanien  Marcos Llunas - Sin rencor
TTITLE17=98 Spanien  Mikel Herzog - Qué voy a hacer sin tí
TTITLE18=99 Spanien  Lydia - No quiero escuchar
TTITLE19=00 Spanien  Serafín Zubiri - Colgado de un sueño
TTITLE20=02 Spanien  Rosa - Europe's living a celebration  [bonusspår]
EXTD=1961-2000
EXTT0=
EXTT1=
EXTT2=
EXTT3=
EXTT4=
EXTT5=
EXTT6=
EXTT7=
EXTT8=
EXTT9=
EXTT10=
EXTT11=
EXTT12=
EXTT13=
EXTT14=
EXTT15=
EXTT16=
EXTT17=
EXTT18=
EXTT19=
EXTT20=
PLAYORDER=
